<?xml version="1.0" encoding="UTF-8" standalone="no"?>
<!-- Created with Inkscape (http://www.inkscape.org/) -->

<svg
   width="31.999998"
   height="31.999998"
   viewBox="0 0 8.4666661 8.4666661"
   version="1.1"
   id="svg1"
   xmlns="http://www.w3.org/2000/svg"
   xmlns:svg="http://www.w3.org/2000/svg">
  <defs
     id="defs1" />
  <g
     id="layer1">
    <path
       style="fill:#000000;stroke-width:0.264583"
       d="M 2.3226825,6.5793539 C -0.11376407,2.8915028 2.1141151,4.6074437 3.0242276,4.0196628 3.93434,3.431882 0.89115166,3.8110955 2.7113763,3.1000701 4.5316011,2.3890449 6.8353229,0.6162219 4.5126405,1.1566011 2.1899579,1.6969803 1.1471208,1.9245084 1.0523174,1.4978932 0.95751406,1.071278 1.0143961,0.86271067 1.7633427,0.71102528 2.5122892,0.55933987 5.0625,0.14220506 5.7261237,0.37921347 6.3897471,0.6162219 7.0818119,1.1660814 6.8163623,1.8202246 6.550913,2.4743679 5.1099017,4.7780899 5.9157302,4.2092696 6.7215589,3.6404493 7.2714184,4.1808285 6.9870085,4.6738062 6.7025984,5.1667837 6.0105336,6.5793539 4.3609549,6.2949437 2.7113763,6.0105336 2.4269664,5.1573031 3.1853932,4.7496488 3.9438203,4.3419944 3.4792836,4.190309 3.0716292,4.50316 2.6639746,4.816011 2.0856743,5.5933986 2.4743681,5.792486 2.8630619,5.991573 4.7117276,7.3377807 5.4037921,6.8827246 6.0958567,6.4276685 6.6551967,6.7215589 6.7310392,6.7974015 6.806882,6.8732443 7.4041432,7.4799857 6.8448034,7.6885533 6.2854634,7.8971207 3.7542135,8.4754213 3.0431881,7.536868"
       id="path1" />
  </g>
</svg>
